<?xml version="1.0" encoding="UTF-8" standalone="no"?><svg xmlns="http://www.w3.org/2000/svg" xmlns:xlink="http://www.w3.org/1999/xlink"><symbol viewBox="0 -256 1850 1850" id="Envelope_alt_font_awesome" xmlns="http://www.w3.org/2000/svg"><path d="M1822.373 426.305v794q0 66-47 113t-113 47h-1472q-66 0-113-47t-47-113v-794q44 49 101 87 362 246 497 345 57 42 92.5 65.5t94.5 48q59 24.5 110 24.5h2q51 0 110-24.5t94.5-48q35.5-23.5 92.5-65.5 170-123 498-345 57-39 100-87zm0-294q0 79-49 151t-122 123q-376 261-468 325-10 7-42.5 30.5t-54 38q-21.5 14.5-52 32.5t-57.5 27q-27 9-50 9h-2q-23 0-50-9t-57.5-27q-30.5-18-52-32.5t-54-38q-32.5-23.5-42.5-30.5-91-64-262-182.5t-205-142.5q-62-42-117-115.5t-55-136.5q0-78 41.5-130t118.5-52h1472q65 0 112.5 47t47.5 113z" fill="rgba(0,0,0,.5)"/></symbol><symbol viewBox="0 0 24 24" id="github" xmlns="http://www.w3.org/2000/svg"><title>GitHub icon</title><path d="M12 .297c-6.63 0-12 5.373-12 12 0 5.303 3.438 9.8 8.205 11.385.6.113.82-.258.82-.577 0-.285-.01-1.04-.015-2.04-3.338.724-4.042-1.61-4.042-1.61C4.422 18.07 3.633 17.7 3.633 17.7c-1.087-.744.084-.729.084-.729 1.205.084 1.838 1.236 1.838 1.236 1.07 1.835 2.809 1.305 3.495.998.108-.776.417-1.305.76-1.605-2.665-.3-5.466-1.332-5.466-5.93 0-1.31.465-2.38 1.235-3.22-.135-.303-.54-1.523.105-3.176 0 0 1.005-.322 3.3 1.23.96-.267 1.98-.399 3-.405 1.02.006 2.04.138 3 .405 2.28-1.552 3.285-1.23 3.285-1.23.645 1.653.24 2.873.12 3.176.765.84 1.23 1.91 1.23 3.22 0 4.61-2.805 5.625-5.475 5.92.42.36.81 1.096.81 2.22 0 1.606-.015 2.896-.015 3.286 0 .315.21.69.825.57C20.565 22.092 24 17.592 24 12.297c0-6.627-5.373-12-12-12" fill="rgba(0,0,0,.5)"/></symbol><symbol viewBox="0 0 24 24" id="gmail" xmlns="http://www.w3.org/2000/svg"><title>Gmail icon</title><path d="M24 4.5v15c0 .85-.65 1.5-1.5 1.5H21V7.387l-9 6.463-9-6.463V21H1.5C.649 21 0 20.35 0 19.5v-15c0-.425.162-.8.431-1.068A1.485 1.485 0 0 1 1.5 3H2l10 7.25L22 3h.5c.425 0 .8.162 1.069.432.27.268.431.643.431 1.068z" fill="rgba(255,255,255,.5)"/></symbol><symbol viewBox="0 0 24 24" id="instagram" xmlns="http://www.w3.org/2000/svg"><title>Instagram icon</title><path d="M12 0C8.74 0 8.333.015 7.053.072 5.775.132 4.905.333 4.14.63c-.789.306-1.459.717-2.126 1.384S.935 3.35.63 4.14C.333 4.905.131 5.775.072 7.053.012 8.333 0 8.74 0 12s.015 3.667.072 4.947c.06 1.277.261 2.148.558 2.913a5.885 5.885 0 0 0 1.384 2.126A5.868 5.868 0 0 0 4.14 23.37c.766.296 1.636.499 2.913.558C8.333 23.988 8.74 24 12 24s3.667-.015 4.947-.072c1.277-.06 2.148-.262 2.913-.558a5.898 5.898 0 0 0 2.126-1.384 5.86 5.86 0 0 0 1.384-2.126c.296-.765.499-1.636.558-2.913.06-1.28.072-1.687.072-4.947s-.015-3.667-.072-4.947c-.06-1.277-.262-2.149-.558-2.913a5.89 5.89 0 0 0-1.384-2.126A5.847 5.847 0 0 0 19.86.63c-.765-.297-1.636-.499-2.913-.558C15.667.012 15.26 0 12 0zm0 2.16c3.203 0 3.585.016 4.85.071 1.17.055 1.805.249 2.227.415.562.217.96.477 1.382.896.419.42.679.819.896 1.381.164.422.36 1.057.413 2.227.057 1.266.07 1.646.07 4.85s-.015 3.585-.074 4.85c-.061 1.17-.256 1.805-.421 2.227a3.81 3.81 0 0 1-.899 1.382 3.744 3.744 0 0 1-1.38.896c-.42.164-1.065.36-2.235.413-1.274.057-1.649.07-4.859.07-3.211 0-3.586-.015-4.859-.074-1.171-.061-1.816-.256-2.236-.421a3.716 3.716 0 0 1-1.379-.899 3.644 3.644 0 0 1-.9-1.38c-.165-.42-.359-1.065-.42-2.235-.045-1.26-.061-1.649-.061-4.844 0-3.196.016-3.586.061-4.861.061-1.17.255-1.814.42-2.234.21-.57.479-.96.9-1.381.419-.419.81-.689 1.379-.898.42-.166 1.051-.361 2.221-.421 1.275-.045 1.65-.06 4.859-.06l.045.03zm0 3.678a6.162 6.162 0 1 0 0 12.324 6.162 6.162 0 1 0 0-12.324zM12 16c-2.21 0-4-1.79-4-4s1.79-4 4-4 4 1.79 4 4-1.79 4-4 4zm7.846-10.405a1.441 1.441 0 0 1-2.88 0 1.44 1.44 0 0 1 2.88 0z" fill="#fff"/></symbol><symbol viewBox="0 0 24 24" id="linkedin" xmlns="http://www.w3.org/2000/svg"><title>LinkedIn icon</title><path d="M20.447 20.452h-3.554v-5.569c0-1.328-.027-3.037-1.852-3.037-1.853 0-2.136 1.445-2.136 2.939v5.667H9.351V9h3.414v1.561h.046c.477-.9 1.637-1.85 3.37-1.85 3.601 0 4.267 2.37 4.267 5.455v6.286zM5.337 7.433a2.062 2.062 0 0 1-2.063-2.065 2.064 2.064 0 1 1 2.063 2.065zm1.782 13.019H3.555V9h3.564v11.452zM22.225 0H1.771C.792 0 0 .774 0 1.729v20.542C0 23.227.792 24 1.771 24h20.451C23.2 24 24 23.227 24 22.271V1.729C24 .774 23.2 0 22.222 0h.003z" fill="rgba(0,0,0,.5)"/></symbol><symbol viewBox="0 0 24 24" id="mixcloud" xmlns="http://www.w3.org/2000/svg"><title>Mixcloud icon</title><path d="M21.95 19.062a.804.804 0 0 1-.67-1.245c.738-1.094 1.125-2.381 1.125-3.719s-.387-2.625-1.125-3.721a.796.796 0 0 1 .216-1.106.797.797 0 0 1 1.108.214A8.266 8.266 0 0 1 24 14.105a8.268 8.268 0 0 1-1.396 4.619.73.73 0 0 1-.645.359l-.009-.021z" fill="#fff"/><path d="M19.66 17.768a.784.784 0 0 1-.445-.139.777.777 0 0 1-.215-1.094 4.275 4.275 0 0 0 .747-2.43c0-.855-.258-1.695-.747-2.431-.248-.36-.154-.854.215-1.095s.857-.15 1.106.225a5.922 5.922 0 0 1 1.021 3.314c0 1.201-.352 2.34-1.021 3.315a.767.767 0 0 1-.661.36v-.025zm-3.73-7.153a6.331 6.331 0 0 0-6.3-5.699 6.349 6.349 0 0 0-5.995 4.283C1.588 9.501 0 11.269 0 13.4a4.264 4.264 0 0 0 4.26 4.254h10.908a3.566 3.566 0 0 0 3.566-3.557c0-1.706-1.2-3.129-2.805-3.48v-.002zm-.762 5.446H4.263a2.67 2.67 0 0 1-2.669-2.658 2.664 2.664 0 0 1 2.669-2.658c.71 0 1.381.285 1.886.781a.79.79 0 0 0 1.125 0c.3-.301.3-.811 0-1.125A4.288 4.288 0 0 0 5.309 9.29a4.728 4.728 0 0 1 4.305-2.774 4.75 4.75 0 0 1 4.74 4.738c0 .512-.075 1.006-.24 1.486a.819.819 0 0 0 .75 1.065.79.79 0 0 0 .75-.54c.105-.315.18-.63.225-.96a1.977 1.977 0 0 1 1.26 1.83 1.973 1.973 0 0 1-1.965 1.979l.034-.053z" fill="#fff"/></symbol><symbol viewBox="0 0 150 80" id="stars-anim" xmlns="http://www.w3.org/2000/svg"><title>background</title><path fill="#06061d" d="M-1-1h152v82H-1z"/><g><title>Layer 1</title><circle r="2" cy="6" cx="7.5" stroke="#000" fill="#fff"><animate attributeName="opacity" values="1;.3;1" dur="3.5s" repeatCount="indefinite"/></circle><circle stroke="#000" r="2" cy="25.5" cx="91" stroke-opacity="null" stroke-width="1.5" fill="#82828e"><animate attributeName="opacity" values="1;.4;1" begin="2s" dur="3s" repeatCount="indefinite"/></circle><circle stroke="#000" r="2" cy="52" cx="118" stroke-opacity="null" stroke-width="1.5" fill="#cdcdd1"/><circle stroke="#000" r="2" cy="71" cx="52" stroke-opacity="null" stroke-width="2" fill="#cdcdd1"/></g></symbol><symbol viewBox="0 0 256 295" preserveAspectRatio="xMinYMin meet" id="svg--bitbucket" xmlns="http://www.w3.org/2000/svg"><g fill="#205081"><path d="M128 0C57.732 0 .012 18.822.012 42.663c0 6.274 15.057 95.364 21.331 130.498 2.51 16.312 43.918 38.898 106.657 38.898 62.74 0 102.893-22.586 106.657-38.898 6.274-35.134 21.331-124.224 21.331-130.498C254.734 18.822 198.268 0 128 0zm0 183.199c-22.586 0-40.153-17.567-40.153-40.153s17.567-40.153 40.153-40.153 40.153 17.567 40.153 40.153c0 21.331-17.567 40.153-40.153 40.153zm0-127.988c-45.172 0-81.561-7.53-81.561-17.567 0-10.039 36.389-17.567 81.561-17.567 45.172 0 81.561 7.528 81.561 17.567 0 10.038-36.389 17.567-81.561 17.567z"/><path d="M220.608 207.04c-2.51 0-3.764 1.255-3.764 1.255s-31.37 25.096-87.835 25.096c-56.466 0-87.835-25.096-87.835-25.096s-2.51-1.255-3.765-1.255c-2.51 0-5.019 1.255-5.019 5.02v1.254c5.02 26.35 8.784 45.172 8.784 47.682 3.764 18.822 41.408 33.88 86.58 33.88s82.816-15.058 86.58-33.88c0-2.51 3.765-21.332 8.784-47.682v-1.255c1.255-2.51 0-5.019-2.51-5.019z"/><circle cx="128" cy="141.791" r="20.077"/></g></symbol><symbol viewBox="0 0 210 194" id="svg--gitlab" xmlns="http://www.w3.org/2000/svg"><title>Group</title><g fill="none" fill-rule="evenodd"><path d="M105.061 193.655l38.64-118.921h-77.28l38.64 118.921z" fill="#E24329"/><path d="M105.061 193.655L66.421 74.734H12.268l92.793 118.92z" fill="#FC6D26"/><path d="M12.268 74.734L.526 110.874a8 8 0 0 0 2.907 8.943l101.628 73.838-92.793-118.92z" fill="#FCA326"/><path d="M12.268 74.734h54.153L43.148 3.11c-1.197-3.686-6.41-3.685-7.608 0L12.27 74.734z" fill="#E24329"/><path d="M105.061 193.655l38.64-118.921h54.153l-92.793 118.92z" fill="#FC6D26"/><path d="M197.854 74.734l11.742 36.14a8 8 0 0 1-2.906 8.943l-101.629 73.838 92.793-118.92z" fill="#FCA326"/><path d="M197.854 74.734h-54.153L166.974 3.11c1.197-3.686 6.411-3.685 7.608 0l23.272 71.625z" fill="#E24329"/></g></symbol><symbol viewBox="0 0 24 24" id="twitter" xmlns="http://www.w3.org/2000/svg"><title>Twitter icon</title><path d="M23.954 4.569a10 10 0 0 1-2.825.775 4.958 4.958 0 0 0 2.163-2.723c-.951.555-2.005.959-3.127 1.184a4.92 4.92 0 0 0-8.384 4.482C7.691 8.094 4.066 6.13 1.64 3.161a4.822 4.822 0 0 0-.666 2.475c0 1.71.87 3.213 2.188 4.096a4.904 4.904 0 0 1-2.228-.616v.061a4.923 4.923 0 0 0 3.946 4.827 4.996 4.996 0 0 1-2.212.085 4.937 4.937 0 0 0 4.604 3.417 9.868 9.868 0 0 1-6.102 2.105c-.39 0-.779-.023-1.17-.067a13.995 13.995 0 0 0 7.557 2.209c9.054 0 13.999-7.496 13.999-13.986 0-.209 0-.42-.015-.63a9.936 9.936 0 0 0 2.46-2.548l-.047-.02z" fill="rgba(0,0,0,.5)"/></symbol><symbol viewBox="0 0 24 24" id="youtube" xmlns="http://www.w3.org/2000/svg"><title>YouTube icon</title><path class="ka" d="M23.495 6.205a3.007 3.007 0 0 0-2.088-2.088c-1.87-.501-9.396-.501-9.396-.501s-7.507-.01-9.396.501A3.007 3.007 0 0 0 .527 6.205a31.247 31.247 0 0 0-.522 5.805 31.247 31.247 0 0 0 .522 5.783 3.007 3.007 0 0 0 2.088 2.088c1.868.502 9.396.502 9.396.502s7.506 0 9.396-.502a3.007 3.007 0 0 0 2.088-2.088 31.247 31.247 0 0 0 .5-5.783 31.247 31.247 0 0 0-.5-5.805zM9.609 15.601V8.408l6.264 3.602z" fill="#fff"/></symbol></svg>